<svg width="174" height="44" viewBox="0 0 174 44" fill="none" xmlns="http://www.w3.org/2000/svg">
<path d="M27.8288 23.096C27.8288 19.4267 27.1034 16.4827 25.6528 14.264C24.2448 12.0027 22.3461 10.36 19.9568 9.336C17.6101 8.26933 14.9861 7.736 12.0848 7.736C10.7621 7.736 9.58875 7.77867 8.56475 7.864C7.54075 7.94933 6.60209 8.07733 5.74875 8.248V38.712C6.77275 38.968 7.86075 39.1387 9.01275 39.224C10.2074 39.3093 11.4234 39.352 12.6608 39.352C17.6528 39.352 21.4288 37.9867 23.9888 35.256C26.5488 32.4827 27.8288 28.4293 27.8288 23.096ZM33.1408 23.096C33.1408 27.7467 32.2874 31.608 30.5808 34.68C28.9168 37.7093 26.5488 39.9707 23.4768 41.464C20.4474 42.9573 16.8634 43.704 12.7248 43.704C11.4021 43.704 9.86609 43.64 8.11675 43.512C6.41009 43.4267 4.78875 43.1493 3.25275 42.68C1.46075 42.1253 0.564752 41.144 0.564752 39.736V6.84C0.564752 6.15733 0.735418 5.64533 1.07675 5.304C1.46075 4.92 1.99409 4.62133 2.67675 4.408C3.99942 3.98133 5.49275 3.704 7.15675 3.576C8.82075 3.448 10.4848 3.384 12.1488 3.384C16.3301 3.384 19.9781 4.13066 23.0928 5.624C26.2501 7.07467 28.7034 9.25067 30.4528 12.152C32.2448 15.0533 33.1408 18.7013 33.1408 23.096ZM59.3387 29.048H54.2187V19.32C54.2187 18.3387 54.3894 17.5707 54.7307 17.016C55.1147 16.4187 55.7334 15.8427 56.5867 15.288C57.6961 14.5627 59.2107 13.944 61.1307 13.432C63.0507 12.8773 65.1841 12.6 67.5307 12.6C70.9441 12.6 72.6507 13.4533 72.6507 15.16C72.6507 15.5867 72.5867 15.992 72.4587 16.376C72.3307 16.7173 72.1601 17.016 71.9467 17.272C71.5201 17.1867 70.9654 17.1013 70.2827 17.016C69.6001 16.9307 68.9174 16.888 68.2347 16.888C66.2721 16.888 64.5441 17.1013 63.0507 17.528C61.5574 17.912 60.3201 18.3813 59.3387 18.936V29.048ZM59.3387 26.872V42.872C59.1254 42.9573 58.8054 43.0427 58.3787 43.128C57.9521 43.256 57.4827 43.32 56.9707 43.32C56.0747 43.32 55.3921 43.1493 54.9227 42.808C54.4534 42.424 54.2187 41.8267 54.2187 41.016V26.104L59.3387 26.872ZM91.0083 4.088C91.0083 3.192 91.3283 2.44533 91.9683 1.848C92.6083 1.208 93.3976 0.887997 94.3363 0.887997C95.3176 0.887997 96.1069 1.208 96.7043 1.848C97.3016 2.44533 97.6003 3.192 97.6003 4.088C97.6003 4.984 97.3016 5.752 96.7043 6.392C96.1069 6.98933 95.3176 7.288 94.3363 7.288C93.3976 7.288 92.6083 6.98933 91.9683 6.392C91.3283 5.752 91.0083 4.984 91.0083 4.088ZM96.8963 26.104V42.872C96.6829 42.9573 96.3629 43.0427 95.9363 43.128C95.5096 43.256 95.0403 43.32 94.5283 43.32C93.6323 43.32 92.9496 43.1493 92.4803 42.808C92.0109 42.424 91.7763 41.8267 91.7763 41.016V26.104H96.8963ZM91.7763 28.6V13.56C91.9896 13.4747 92.3096 13.3893 92.7363 13.304C93.2056 13.176 93.6963 13.112 94.2083 13.112C95.1043 13.112 95.7656 13.304 96.1923 13.688C96.6616 14.0293 96.8963 14.6267 96.8963 15.48V28.6H91.7763ZM123.982 15.096H137.55C137.678 15.2667 137.806 15.544 137.934 15.928C138.062 16.2693 138.126 16.6747 138.126 17.144C138.126 17.8267 137.955 18.36 137.614 18.744C137.272 19.0853 136.782 19.256 136.142 19.256H123.982V15.096ZM124.878 18.552H119.822V10.808C119.822 8.29066 120.27 6.264 121.166 4.728C122.104 3.14933 123.427 1.99733 125.134 1.272C126.883 0.503999 128.952 0.119999 131.342 0.119999C133.774 0.119999 135.672 0.439999 137.038 1.08C138.446 1.72 139.15 2.50933 139.15 3.448C139.15 3.91733 139.043 4.344 138.83 4.728C138.659 5.112 138.403 5.47466 138.062 5.816C137.294 5.38933 136.334 5.048 135.182 4.792C134.03 4.49333 132.92 4.344 131.854 4.344C129.251 4.344 127.438 4.87733 126.414 5.944C125.39 7.01066 124.878 8.71733 124.878 11.064V18.552ZM124.942 15.736V42.872C124.728 42.9573 124.408 43.0427 123.982 43.128C123.555 43.256 123.086 43.32 122.574 43.32C121.678 43.32 120.995 43.1493 120.526 42.808C120.056 42.424 119.822 41.8267 119.822 41.016V15.736H124.942ZM162.303 26.104V34.936C162.303 36.6427 162.793 37.8587 163.775 38.584C164.756 39.2667 166.1 39.608 167.807 39.608C168.532 39.608 169.343 39.48 170.239 39.224C171.135 38.968 171.881 38.6693 172.479 38.328C172.735 38.584 172.969 38.904 173.183 39.288C173.396 39.672 173.503 40.12 173.503 40.632C173.503 41.5707 172.948 42.3387 171.839 42.936C170.729 43.5333 169.193 43.832 167.231 43.832C164.244 43.832 161.812 43.1707 159.935 41.848C158.1 40.5253 157.183 38.328 157.183 35.256V26.104H162.303ZM159.807 14.072H172.799C172.927 14.2427 173.055 14.52 173.183 14.904C173.311 15.288 173.375 15.6933 173.375 16.12C173.375 16.8027 173.204 17.336 172.863 17.72C172.521 18.104 172.052 18.296 171.455 18.296H159.807V14.072ZM157.183 28.024V4.856C157.396 4.77066 157.716 4.68533 158.143 4.6C158.612 4.472 159.103 4.408 159.615 4.408C160.511 4.408 161.172 4.6 161.599 4.984C162.068 5.32533 162.303 5.90133 162.303 6.712V28.024H157.183Z" fill="black"/>
</svg>
